PathFileType	4	(X/Y/Z)	C:/Users/esars/Documents/OpenSim/4.3/Models/Julia/t_pose_opti.trc	
DataRate	CameraRate	NumFrames	NumMarkers	Units	OrigDataRate	OrigDataStartFrame	OrigNumFrames	
200.00	200.00	10	46	m	200.00	176	200	
Frame#	Time	Digital_Twin_SUB001_LHM2			Digital_Twin_SUB001_LTH			Digital_Twin_SUB001_LCAJ			Digital_Twin_SUB001_LFAL			Digital_Twin_SUB001_RAH			Digital_Twin_SUB001_LUA			Digital_Twin_SUB001_RHLE			Digital_Twin_SUB001_LUSP			Digital_Twin_SUB001_RDP1			Digital_Twin_SUB001_RCAJ			Digital_Twin_SUB001_RSK			Digital_Twin_SUB001_LHLE			Digital_Twin_SUB001_LPH			Digital_Twin_SUB001_RUA			Digital_Twin_SUB001_RIAS			Digital_Twin_SUB001_LFAX			Digital_Twin_SUB001_RFM5			Digital_Twin_SUB001_LIPS			Digital_Twin_SUB001_RIPS			Digital_Twin_SUB001_LAH			Digital_Twin_SUB001_RFCC			Digital_Twin_SUB001_TV7			Digital_Twin_SUB001_RPH			Digital_Twin_SUB001_LFM1			Digital_Twin_SUB001_LFCC			Digital_Twin_SUB001_LDP1			Digital_Twin_SUB001_RFAL			Digital_Twin_SUB001_LSK			Digital_Twin_SUB001_LFTC			Digital_Twin_SUB001_CV7			Digital_Twin_SUB001_RTTC			Digital_Twin_SUB001_RHM2			Digital_Twin_SUB001_LFLE			Digital_Twin_SUB001_SJN			Digital_Twin_SUB001_SXS			Digital_Twin_SUB001_RFM1			Digital_Twin_SUB001_RTH			Digital_Twin_SUB001_RFTC			Digital_Twin_SUB001_RFLE			Digital_Twin_SUB001_RFAX			Digital_Twin_SUB001_LTTC			Digital_Twin_SUB001_LFM5			Digital_Twin_SUB001_LIAS			Digital_Twin_SUB001_RUSP			Digital_Twin_SUB001_RRSP			Digital_Twin_SUB001_LRSP			
		X1	Y1	Z1	X2	Y2	Z2	X3	Y3	Z3	X4	Y4	Z4	X5	Y5	Z5	X6	Y6	Z6	X7	Y7	Z7	X8	Y8	Z8	X9	Y9	Z9	X10	Y10	Z10	X11	Y11	Z11	X12	Y12	Z12	X13	Y13	Z13	X14	Y14	Z14	X15	Y15	Z15	X16	Y16	Z16	X17	Y17	Z17	X18	Y18	Z18	X19	Y19	Z19	X20	Y20	Z20	X21	Y21	Z21	X22	Y22	Z22	X23	Y23	Z23	X24	Y24	Z24	X25	Y25	Z25	X26	Y26	Z26	X27	Y27	Z27	X28	Y28	Z28	X29	Y29	Z29	X30	Y30	Z30	X31	Y31	Z31	X32	Y32	Z32	X33	Y33	Z33	X34	Y34	Z34	X35	Y35	Z35	X36	Y36	Z36	X37	Y37	Z37	X38	Y38	Z38	X39	Y39	Z39	X40	Y40	Z40	X41	Y41	Z41	X42	Y42	Z42	X43	Y43	Z43	X44	Y44	Z44	X45	Y45	Z45	X46	Y46	Z46	

176	0.87500	-0.29114	1.30851	0.09965	-0.24122	0.56990	0.69919	-0.34211	1.37487	0.73687	-0.33510	0.05347	0.66848	-0.26231	1.58920	0.94138	-0.34932	1.33742	0.51649	-0.33079	1.31623	1.30950	-0.35256	1.30612	0.19756	-0.14154	0.02676	0.97963	-0.32141	1.36678	1.00560	-0.27961	0.23471	0.99268	-0.34048	1.31842	0.43091	-0.38250	1.55384	0.79335	-0.32276	1.34888	1.15347	-0.21389	0.93178	0.97414	-0.33501	0.42234	0.67613	-0.22018	0.02378	1.05207	-0.37107	1.02058	0.83404	-0.37318	1.00926	0.89856	-0.26295	1.59754	0.79564	-0.38170	0.03882	0.97701	-0.39019	1.22946	0.86899	-0.36456	1.55594	0.95387	-0.18851	0.03832	0.73490	-0.38627	0.03794	0.70070	-0.14588	0.02858	0.72000	-0.33158	0.06444	1.02480	-0.28896	0.31400	0.71936	-0.28387	0.82696	0.67534	-0.38684	1.38047	0.87205	-0.26334	0.40046	0.97775	-0.29667	1.31641	1.63140	-0.31198	0.44815	0.68539	-0.23140	1.32821	0.86488	-0.15334	1.20439	0.85153	-0.18831	0.04166	0.97279	-0.20130	0.75648	0.99764	-0.29458	0.83851	1.02634	-0.29806	0.45099	1.02551	-0.31054	0.41986	1.03074	-0.28441	0.39954	0.73367	-0.22528	0.02908	0.64561	-0.22226	0.94096	0.73267	-0.34520	1.31447	1.53638	-0.28442	1.30955	1.54862	-0.28041	1.30971	0.20037
177	0.88000	-0.29100	1.30847	0.09958	-0.24120	0.56986	0.69917	-0.34203	1.37486	0.73679	-0.33511	0.05347	0.66846	-0.26220	1.58923	0.94130	-0.34924	1.33741	0.51641	-0.33073	1.31625	1.30941	-0.35245	1.30610	0.19747	-0.14153	0.02676	0.97961	-0.32134	1.36676	1.00551	-0.27963	0.23470	0.99269	-0.34037	1.31840	0.43083	-0.38243	1.55384	0.79327	-0.32269	1.34888	1.15338	-0.21386	0.93177	0.97406	-0.33504	0.42234	0.67609	-0.22016	0.02378	1.05207	-0.37105	1.02066	0.83399	-0.37315	1.00927	0.89851	-0.26288	1.59753	0.79556	-0.38166	0.03885	0.97701	-0.39015	1.22950	0.86887	-0.36444	1.55591	0.95373	-0.18848	0.03831	0.73490	-0.38627	0.03793	0.70069	-0.14587	0.02855	0.71996	-0.33156	0.06447	1.02482	-0.28896	0.31401	0.71932	-0.28386	0.82695	0.67528	-0.38679	1.38048	0.87198	-0.26334	0.40044	0.97772	-0.29662	1.31646	1.63131	-0.31200	0.44813	0.68533	-0.23134	1.32819	0.86481	-0.15332	1.20432	0.85148	-0.18828	0.04165	0.97277	-0.20130	0.75649	0.99762	-0.29455	0.83853	1.02638	-0.29803	0.45100	1.02547	-0.31053	0.41986	1.03070	-0.28445	0.39952	0.73363	-0.22528	0.02906	0.64562	-0.22223	0.94094	0.73260	-0.34515	1.31451	1.53629	-0.28437	1.30959	1.54855	-0.28032	1.30968	0.20027
178	0.88500	-0.29089	1.30847	0.09952	-0.24121	0.56988	0.69915	-0.34194	1.37487	0.73672	-0.33509	0.05348	0.66843	-0.26211	1.58927	0.94120	-0.34916	1.33742	0.51636	-0.33065	1.31627	1.30931	-0.35235	1.30608	0.19741	-0.14151	0.02679	0.97962	-0.32130	1.36679	1.00547	-0.27963	0.23473	0.99266	-0.34027	1.31841	0.43074	-0.38236	1.55387	0.79316	-0.32264	1.34894	1.15328	-0.21385	0.93180	0.97402	-0.33507	0.42238	0.67605	-0.22015	0.02383	1.05207	-0.37102	1.02071	0.83394	-0.37311	1.00930	0.89845	-0.26282	1.59756	0.79546	-0.38162	0.03889	0.97700	-0.39007	1.22953	0.86881	-0.36435	1.55591	0.95362	-0.18846	0.03835	0.73490	-0.38626	0.03796	0.70070	-0.14586	0.02858	0.71997	-0.33154	0.06454	1.02481	-0.28899	0.31402	0.71931	-0.28385	0.82696	0.67523	-0.38673	1.38050	0.87193	-0.26334	0.40047	0.97770	-0.29659	1.31651	1.63122	-0.31202	0.44817	0.68528	-0.23129	1.32820	0.86475	-0.15323	1.20434	0.85135	-0.18827	0.04169	0.97277	-0.20126	0.75652	0.99758	-0.29452	0.83853	1.02632	-0.29802	0.45104	1.02546	-0.31049	0.41990	1.03067	-0.28446	0.39953	0.73360	-0.22526	0.02914	0.64559	-0.22221	0.94097	0.73255	-0.34512	1.31456	1.53622	-0.28433	1.30966	1.54847	-0.28019	1.30965	0.20023
179	0.89000	-0.29078	1.30848	0.09946	-0.24119	0.56996	0.69914	-0.34189	1.37490	0.73666	-0.33511	0.05353	0.66843	-0.26202	1.58932	0.94113	-0.34908	1.33744	0.51631	-0.33058	1.31632	1.30928	-0.35221	1.30605	0.19730	-0.14152	0.02683	0.97964	-0.32125	1.36681	1.00541	-0.27965	0.23479	0.99265	-0.34017	1.31842	0.43065	-0.38228	1.55393	0.79307	-0.32259	1.34897	1.15324	-0.21383	0.93180	0.97397	-0.33509	0.42242	0.67602	-0.22015	0.02385	1.05206	-0.37098	1.02071	0.83391	-0.37307	1.00931	0.89837	-0.26275	1.59759	0.79541	-0.38163	0.03892	0.97702	-0.39001	1.22956	0.86875	-0.36428	1.55597	0.95354	-0.18849	0.03839	0.73492	-0.38626	0.03800	0.70072	-0.14588	0.02864	0.71999	-0.33154	0.06461	1.02481	-0.28902	0.31406	0.71930	-0.28382	0.82702	0.67517	-0.38667	1.38055	0.87189	-0.26337	0.40051	0.97770	-0.29657	1.31658	1.63117	-0.31207	0.44823	0.68527	-0.23122	1.32822	0.86471	-0.15320	1.20437	0.85128	-0.18828	0.04174	0.97279	-0.20126	0.75655	0.99754	-0.29452	0.83857	1.02630	-0.29799	0.45110	1.02545	-0.31050	0.41994	1.03069	-0.28447	0.39958	0.73359	-0.22527	0.02920	0.64561	-0.22221	0.94099	0.73248	-0.34511	1.31464	1.53614	-0.28431	1.30973	1.54840	-0.28019	1.30964	0.20013
180	0.89500	-0.29067	1.30846	0.09938	-0.24120	0.56996	0.69910	-0.34184	1.37491	0.73658	-0.33514	0.05356	0.66843	-0.26191	1.58934	0.94101	-0.34901	1.33746	0.51625	-0.33056	1.31635	1.30923	-0.35217	1.30607	0.19711	-0.14155	0.02686	0.97965	-0.32123	1.36686	1.00535	-0.27967	0.23482	0.99265	-0.34010	1.31843	0.43060	-0.38220	1.55395	0.79302	-0.32253	1.34896	1.15315	-0.21384	0.93182	0.97393	-0.33512	0.42247	0.67598	-0.22019	0.02390	1.05211	-0.37097	1.02073	0.83385	-0.37305	1.00931	0.89832	-0.26268	1.59764	0.79530	-0.38154	0.03889	0.97698	-0.38999	1.22960	0.86871	-0.36421	1.55601	0.95347	-0.18850	0.03845	0.73494	-0.38627	0.03801	0.70072	-0.14590	0.02869	0.72002	-0.33160	0.06467	1.02485	-0.28906	0.31408	0.71928	-0.28382	0.82704	0.67511	-0.38661	1.38056	0.87183	-0.26337	0.40053	0.97770	-0.29656	1.31667	1.63115	-0.31208	0.44826	0.68525	-0.23119	1.32822	0.86462	-0.15320	1.20439	0.85123	-0.18829	0.04178	0.97281	-0.20127	0.75657	0.99751	-0.29454	0.83861	1.02626	-0.29800	0.45112	1.02543	-0.31052	0.41997	1.03066	-0.28451	0.39960	0.73354	-0.22529	0.02925	0.64562	-0.22219	0.94099	0.73244	-0.34510	1.31470	1.53610	-0.28429	1.30981	1.54831	-0.27997	1.30963	0.20005
181	0.90000	-0.29056	1.30840	0.09933	-0.24121	0.56997	0.69907	-0.34177	1.37488	0.73650	-0.33515	0.05358	0.66842	-0.26186	1.58936	0.94096	-0.34893	1.33742	0.51619	-0.33054	1.31635	1.30916	-0.35205	1.30602	0.19698	-0.14156	0.02686	0.97965	-0.32119	1.36687	1.00530	-0.27969	0.23484	0.99264	-0.34002	1.31839	0.43053	-0.38213	1.55392	0.79293	-0.32249	1.34897	1.15310	-0.21384	0.93181	0.97389	-0.33515	0.42249	0.67596	-0.22021	0.02393	1.05208	-0.37097	1.02072	0.83381	-0.37303	1.00932	0.89826	-0.26259	1.59766	0.79522	-0.38165	0.03895	0.97700	-0.38994	1.22958	0.86863	-0.36414	1.55601	0.95340	-0.18853	0.03844	0.73492	-0.38629	0.03798	0.70073	-0.14592	0.02870	0.72000	-0.33164	0.06468	1.02485	-0.28907	0.31410	0.71925	-0.28381	0.82703	0.67506	-0.38655	1.38056	0.87176	-0.26338	0.40055	0.97767	-0.29654	1.31673	1.63109	-0.31209	0.44828	0.68518	-0.23114	1.32823	0.86457	-0.15313	1.20439	0.85117	-0.18829	0.04176	0.97278	-0.20129	0.75657	0.99747	-0.29455	0.83862	1.02624	-0.29803	0.45113	1.02541	-0.31054	0.41999	1.03063	-0.28454	0.39959	0.73354	-0.22531	0.02923	0.64563	-0.22216	0.94097	0.73237	-0.34510	1.31478	1.53602	-0.28428	1.30985	1.54824	-0.27984	1.30958	0.19998
182	0.90500	-0.29043	1.30834	0.09925	-0.24121	0.56992	0.69903	-0.34169	1.37485	0.73642	-0.33516	0.05354	0.66840	-0.26176	1.58936	0.94087	-0.34884	1.33739	0.51612	-0.33050	1.31636	1.30909	-0.35193	1.30597	0.19690	-0.14154	0.02683	0.97961	-0.32112	1.36685	1.00523	-0.27969	0.23484	0.99266	-0.33991	1.31836	0.43045	-0.38197	1.55390	0.79285	-0.32244	1.34898	1.15303	-0.21383	0.93180	0.97383	-0.33518	0.42247	0.67592	-0.22021	0.02391	1.05210	-0.37094	1.02074	0.83377	-0.37300	1.00931	0.89821	-0.26249	1.59763	0.79514	-0.38167	0.03894	0.97702	-0.38988	1.22957	0.86855	-0.36406	1.55603	0.95333	-0.18852	0.03845	0.73491	-0.38628	0.03796	0.70068	-0.14590	0.02868	0.71997	-0.33165	0.06467	1.02483	-0.28907	0.31409	0.71924	-0.28378	0.82703	0.67501	-0.38648	1.38056	0.87170	-0.26337	0.40054	0.97763	-0.29653	1.31676	1.63094	-0.31210	0.44825	0.68514	-0.23110	1.32819	0.86449	-0.15308	1.20435	0.85111	-0.18831	0.04175	0.97276	-0.20128	0.75656	0.99743	-0.29454	0.83860	1.02616	-0.29802	0.45112	1.02537	-0.31054	0.41998	1.03060	-0.28453	0.39954	0.73352	-0.22530	0.02921	0.64561	-0.22211	0.94092	0.73233	-0.34507	1.31479	1.53593	-0.28426	1.30989	1.54817	-0.27970	1.30953	0.19992
183	0.91000	-0.29028	1.30827	0.09919	-0.24117	0.56990	0.69901	-0.34163	1.37484	0.73635	-0.33515	0.05350	0.66841	-0.26167	1.58934	0.94080	-0.34875	1.33738	0.51602	-0.33046	1.31637	1.30900	-0.35181	1.30592	0.19682	-0.14152	0.02681	0.97960	-0.32107	1.36683	1.00516	-0.27966	0.23478	0.99260	-0.33980	1.31832	0.43041	-0.38190	1.55392	0.79278	-0.32237	1.34898	1.15295	-0.21380	0.93176	0.97377	-0.33516	0.42244	0.67588	-0.22018	0.02387	1.05206	-0.37092	1.02074	0.83373	-0.37299	1.00933	0.89817	-0.26240	1.59759	0.79508	-0.38166	0.03893	0.97699	-0.38982	1.22957	0.86849	-0.36395	1.55599	0.95320	-0.18850	0.03839	0.73490	-0.38628	0.03795	0.70067	-0.14591	0.02867	0.71996	-0.33162	0.06462	1.02479	-0.28903	0.31406	0.71921	-0.28374	0.82697	0.67499	-0.38643	1.38056	0.87163	-0.26334	0.40053	0.97758	-0.29650	1.31677	1.63084	-0.31210	0.44821	0.68512	-0.23104	1.32818	0.86443	-0.15303	1.20430	0.85099	-0.18830	0.04174	0.97277	-0.20127	0.75653	0.99737	-0.29453	0.83858	1.02609	-0.29801	0.45113	1.02533	-0.31051	0.41995	1.03054	-0.28453	0.39951	0.73348	-0.22532	0.02914	0.64561	-0.22208	0.94089	0.73228	-0.34503	1.31480	1.53585	-0.28422	1.30987	1.54810	-0.27958	1.30947	0.19984
184	0.91500	-0.29014	1.30823	0.09911	-0.24115	0.56987	0.69901	-0.34155	1.37482	0.73630	-0.33512	0.05347	0.66843	-0.26156	1.58930	0.94070	-0.34866	1.33736	0.51594	-0.33040	1.31638	1.30892	-0.35169	1.30592	0.19674	-0.14151	0.02679	0.97958	-0.32098	1.36680	1.00507	-0.27963	0.23473	0.99259	-0.33971	1.31831	0.43035	-0.38180	1.55392	0.79272	-0.32233	1.34898	1.15286	-0.21379	0.93173	0.97373	-0.33513	0.42240	0.67586	-0.22016	0.02383	1.05204	-0.37090	1.02074	0.83367	-0.37294	1.00932	0.89811	-0.26228	1.59756	0.79501	-0.38167	0.03892	0.97698	-0.38981	1.22959	0.86844	-0.36384	1.55597	0.95309	-0.18849	0.03836	0.73488	-0.38628	0.03796	0.70067	-0.14589	0.02864	0.71994	-0.33159	0.06457	1.02477	-0.28898	0.31403	0.71919	-0.28368	0.82692	0.67496	-0.38635	1.38058	0.87152	-0.26333	0.40047	0.97756	-0.29647	1.31679	1.63074	-0.31206	0.44817	0.68511	-0.23096	1.32813	0.86434	-0.15295	1.20422	0.85094	-0.18828	0.04172	0.97278	-0.20124	0.75650	0.99732	-0.29451	0.83853	1.02601	-0.29799	0.45110	1.02526	-0.31051	0.41993	1.03051	-0.28453	0.39948	0.73346	-0.22527	0.02912	0.64563	-0.22203	0.94085	0.73225	-0.34498	1.31483	1.53578	-0.28420	1.30987	1.54802	-0.27945	1.30943	0.19979
185	0.92000	-0.28997	1.30817	0.09906	-0.24112	0.56986	0.69900	-0.34146	1.37482	0.73623	-0.33510	0.05348	0.66845	-0.26147	1.58928	0.94061	-0.34858	1.33737	0.51589	-0.33037	1.31641	1.30885	-0.35158	1.30591	0.19670	-0.14151	0.02678	0.97961	-0.32092	1.36677	1.00501	-0.27961	0.23470	0.99256	-0.33947	1.31827	0.43023	-0.38170	1.55393	0.79265	-0.32227	1.34897	1.15278	-0.21378	0.93170	0.97369	-0.33511	0.42233	0.67588	-0.22016	0.02380	1.05205	-0.37087	1.02074	0.83364	-0.37292	1.00932	0.89805	-0.26217	1.59755	0.79496	-0.38168	0.03889	0.97697	-0.38977	1.22963	0.86840	-0.36376	1.55597	0.95303	-0.18846	0.03834	0.73489	-0.38629	0.03797	0.70067	-0.14589	0.02862	0.71997	-0.33159	0.06451	1.02476	-0.28897	0.31403	0.71918	-0.28363	0.82690	0.67494	-0.38628	1.38059	0.87144	-0.26329	0.40047	0.97755	-0.29644	1.31683	1.63067	-0.31205	0.44817	0.68509	-0.23090	1.32813	0.86429	-0.15290	1.20414	0.85086	-0.18829	0.04171	0.97280	-0.20124	0.75647	0.99728	-0.29450	0.83851	1.02595	-0.29799	0.45102	1.02522	-0.31050	0.41990	1.03047	-0.28453	0.39945	0.73345	-0.22528	0.02907	0.64563	-0.22201	0.94083	0.73221	-0.34496	1.31485	1.53572	-0.28417	1.30989	1.54796	-0.27944	1.30934	0.19972
